<svg width="24" height="24" viewBox="0 0 24 24" fill="none" xmlns="http://www.w3.org/2000/svg">
<path d="M24 12C24 5.38341 18.6166 0 12 0C5.38341 0 0 5.38341 0 12C0 18.6166 5.38341 24 12 24C18.6166 24 24 18.6166 24 12ZM1.69872 12C1.69872 6.31944 6.31944 1.69872 12 1.69872C17.6806 1.69872 22.3013 6.31944 22.3013 12C22.3013 17.6806 17.6806 22.3013 12 22.3013C6.31944 22.3013 1.69872 17.6806 1.69872 12Z" fill="#FAFAFA"/>
<path d="M15.8183 9.14242C15.4865 8.8106 14.9466 8.8106 14.6148 9.14242L10.6974 13.0599L9.38495 11.7475C9.05313 11.4156 8.5133 11.4156 8.18148 11.7475C7.84966 12.0793 7.84966 12.6191 8.18148 12.9509L10.0932 14.8626C10.2566 15.026 10.4745 15.1102 10.6924 15.1102C10.9103 15.1102 11.1282 15.026 11.2917 14.8626L15.8084 10.3459C16.1501 10.0091 16.1501 9.47424 15.8183 9.14242Z" fill="#FAFAFA"/>
</svg>
