<svg width="24" height="24" viewBox="0 0 24 24" fill="none" xmlns="http://www.w3.org/2000/svg">
<path fill-rule="evenodd" clip-rule="evenodd" d="M19.1113 19.1117C19.6022 18.6208 19.6022 17.8248 19.1113 17.3339L13.7776 12.0002L19.1111 6.66669C19.6021 6.17574 19.6021 5.37976 19.1111 4.88881C18.6202 4.39786 17.8242 4.39786 17.3333 4.88881L11.9997 10.2223L6.66613 4.88872C6.17518 4.39777 5.3792 4.39777 4.88825 4.88872C4.3973 5.37967 4.3973 6.17565 4.88825 6.6666L10.2219 12.0002L4.88811 17.334C4.39716 17.8249 4.39716 18.6209 4.88811 19.1118C5.37906 19.6028 6.17504 19.6028 6.66599 19.1118L11.9997 13.7781L17.3334 19.1117C17.8244 19.6027 18.6203 19.6027 19.1113 19.1117Z" fill="#FAFAFA"/>
</svg>
