<svg width="24" height="24" viewBox="0 0 24 24" fill="none" xmlns="http://www.w3.org/2000/svg">
<g clip-path="url(#clip0)">
<path d="M20.2109 9.12605V8.20336C20.2109 5.99496 19.4293 3.94286 18.0125 2.42017C16.5604 0.857143 14.5638 0 12.3856 0H11.6243C9.44615 0 7.44951 0.857143 5.99741 2.42017C4.58061 3.94286 3.79909 5.99496 3.79909 8.20336V9.12605C2.07977 9.24202 0.713379 10.6739 0.713379 12.4235V13.8655C0.713379 15.6857 2.19573 17.1681 4.0159 17.1681H5.8764C6.20918 17.1681 6.48145 16.8958 6.48145 16.563V9.72101C6.48145 9.38824 6.20918 9.11597 5.8764 9.11597H5.00918V8.20336C5.00918 4.21513 7.85288 1.21008 11.6193 1.21008H12.3806C16.152 1.21008 18.9907 4.21513 18.9907 8.20336V9.11597H18.1235C17.7907 9.11597 17.5184 9.38824 17.5184 9.72101V16.558C17.5184 16.8908 17.7907 17.163 18.1235 17.163H18.9705C18.7235 20.3193 16.5504 21.0504 15.542 21.2168C15.2646 20.3647 14.463 19.7496 13.5201 19.7496H12.0075C10.8377 19.7496 9.88481 20.7025 9.88481 21.8723C9.88481 23.042 10.8377 24 12.0075 24H13.5251C14.5033 24 15.3251 23.3345 15.5722 22.437C16.0663 22.3664 16.8478 22.1899 17.6243 21.7361C18.7184 21.0958 20.0142 19.7899 20.1856 17.158C21.9151 17.0521 23.2865 15.6151 23.2865 13.8605V12.4185C23.2915 10.674 21.9302 9.23697 20.2109 9.12605ZM5.28145 15.9529H4.02598C2.87136 15.9529 1.93355 15.0151 1.93355 13.8605V12.4185C1.93355 11.2639 2.87136 10.3261 4.02598 10.3261H5.28145V15.9529ZM13.5251 22.7899H12.0075C11.5033 22.7899 11.0949 22.3815 11.0949 21.8773C11.0949 21.3731 11.5033 20.9647 12.0075 20.9647H13.5251C14.0293 20.9647 14.4377 21.3731 14.4377 21.8773C14.4377 22.3815 14.0293 22.7899 13.5251 22.7899ZM22.0814 13.8605C22.0814 15.0151 21.1436 15.9529 19.989 15.9529H18.7335V10.3261H19.989C21.1436 10.3261 22.0814 11.2639 22.0814 12.4185V13.8605Z" fill="#FAFAFA"/>
</g>
<defs>
<clipPath id="clip0">
<rect width="24" height="24" fill="white"/>
</clipPath>
</defs>
</svg>
