<svg width="27" height="27" viewBox="0 0 27 27" fill="none" xmlns="http://www.w3.org/2000/svg">
<path d="M14.6571 5.78571C14.6571 5.14664 14.1391 4.62857 13.5 4.62857C12.8609 4.62857 12.3429 5.14664 12.3429 5.78571V13.5C12.3429 13.899 12.5484 14.2698 12.8867 14.4813L17.5153 17.3741C18.0572 17.7128 18.7711 17.5481 19.1098 17.0061C19.4485 16.4642 19.2838 15.7503 18.7419 15.4116L14.6571 12.8587V5.78571Z" fill="white"/>
<path fill-rule="evenodd" clip-rule="evenodd" d="M13.5 0C6.04416 0 0 6.04416 0 13.5C0 20.9558 6.04416 27 13.5 27C20.9558 27 27 20.9558 27 13.5C27 6.04416 20.9558 0 13.5 0ZM2.31429 13.5C2.31429 7.3223 7.3223 2.31429 13.5 2.31429C19.6777 2.31429 24.6857 7.3223 24.6857 13.5C24.6857 19.6777 19.6777 24.6857 13.5 24.6857C7.3223 24.6857 2.31429 19.6777 2.31429 13.5Z" fill="white"/>
</svg>
