<svg width="24" height="24" viewBox="0 0 24 24" fill="none" xmlns="http://www.w3.org/2000/svg">
<g clip-path="url(#clip0)">
<path d="M12.0009 0C5.38414 0 0.000976562 5.38316 0.000976562 11.9999C0.000976562 18.6167 5.38403 24 12.0008 24C18.6176 24 24.0006 18.6167 24.0006 11.9999C24.0008 5.38316 18.6177 0 12.0009 0ZM12.0009 22.3573C6.28993 22.3573 1.6438 17.7109 1.6438 11.9999C1.64369 6.28895 6.28993 1.64271 12.0009 1.64271C17.7118 1.64271 22.358 6.28895 22.358 11.9999C22.358 17.711 17.7118 22.3573 12.0009 22.3573Z" fill="#6F717D"/>
<path d="M18.1917 11.8396H12.4913V5.61237C12.4913 5.15876 12.1237 4.79102 11.67 4.79102C11.2164 4.79102 10.8486 5.15876 10.8486 5.61237V12.6609C10.8486 13.1145 11.2164 13.4823 11.67 13.4823H18.1917C18.6454 13.4823 19.013 13.1145 19.013 12.6609C19.013 12.2073 18.6453 11.8396 18.1917 11.8396Z" fill="#6F717D"/>
</g>
<defs>
<clipPath id="clip0">
<rect width="24" height="24" fill="white"/>
</clipPath>
</defs>
</svg>
