<svg width="24" height="24" viewBox="0 0 24 24" fill="none" xmlns="http://www.w3.org/2000/svg">
<path d="M12 0C5.3677 0 0 5.367 0 12C0 18.6323 5.367 24 12 24C18.6323 24 24 18.633 24 12C24 5.3677 18.633 0 12 0ZM12 22.3256C6.30647 22.3256 1.67442 17.6935 1.67442 12C1.67442 6.30647 6.30647 1.67442 12 1.67442C17.6935 1.67442 22.3256 6.30647 22.3256 12C22.3256 17.6935 17.6935 22.3256 12 22.3256Z" fill="#FAFAFA"/>
<path d="M12 9.54443C11.5377 9.54443 11.1628 9.91929 11.1628 10.3816V17.2467C11.1628 17.7091 11.5377 18.0839 12 18.0839C12.4624 18.0839 12.8372 17.7091 12.8372 17.2467V10.3817C12.8372 9.91929 12.4624 9.54443 12 9.54443Z" fill="#FAFAFA"/>
<path d="M12 5.9165C11.5377 5.9165 11.1628 6.29136 11.1628 6.75369V7.75836C11.1628 8.22073 11.5377 8.59554 12 8.59554C12.4624 8.59554 12.8372 8.22069 12.8372 7.75836V6.75369C12.8372 6.29136 12.4624 5.9165 12 5.9165Z" fill="#FAFAFA"/>
</svg>
