<svg width="32" height="32" viewBox="0 0 32 32" fill="none" xmlns="http://www.w3.org/2000/svg">
<path fill-rule="evenodd" clip-rule="evenodd" d="M25.4816 25.4823C26.1362 24.8277 26.1362 23.7664 25.4816 23.1118L18.3701 16.0003L25.4814 8.88898C26.136 8.23438 26.136 7.17307 25.4814 6.51848C24.8268 5.86388 23.7655 5.86388 23.1109 6.51848L15.9996 13.6298L8.88807 6.51829C8.23348 5.86369 7.17216 5.86369 6.51757 6.51829C5.86297 7.17289 5.86297 8.2342 6.51757 8.88879L13.6291 16.0003L6.51732 23.112C5.86272 23.7666 5.86272 24.8279 6.51731 25.4825C7.17191 26.1371 8.23322 26.1371 8.88782 25.4825L15.9996 18.3708L23.1111 25.4823C23.7657 26.1369 24.827 26.1369 25.4816 25.4823Z" fill="#E13838"/>
</svg>
