<svg width="24" height="24" viewBox="0 0 24 24" fill="none" xmlns="http://www.w3.org/2000/svg">
<g clip-path="url(#clip0)">
<path d="M23.3144 9.28146L20.415 8.92283C20.3286 8.68642 20.2323 8.45365 20.1265 8.22568L21.923 5.92231C22.1657 5.61119 22.1383 5.16796 21.8593 4.88904L19.1102 2.1415C18.8311 1.86268 18.3881 1.83538 18.0772 2.07804L15.7746 3.87379C15.5467 3.76804 15.3138 3.67166 15.0772 3.58528L14.7187 0.686559C14.6702 0.295006 14.3377 0.000976562 13.9432 0.000976562H10.0562C9.66172 0.000976562 9.32904 0.295006 9.28069 0.686559L8.92217 3.58539C8.68555 3.67187 8.45278 3.76814 8.22523 3.87379L5.92217 2.07742C5.61126 1.83475 5.16803 1.86205 4.889 2.14097L2.14042 4.88914C1.86139 5.16806 1.83409 5.6113 2.07675 5.92241L3.87313 8.22547C3.76727 8.45313 3.67089 8.686 3.58431 8.92293L0.685479 9.28146C0.29403 9.32991 0 9.66249 0 10.0571V13.9444C0 14.3389 0.294134 14.6715 0.685687 14.7199L3.58431 15.0779C3.67079 15.3145 3.76706 15.5472 3.87282 15.775L2.07675 18.0781C1.8342 18.3891 1.86149 18.8322 2.14031 19.1111L4.889 21.8603C5.16792 22.1394 5.61116 22.1666 5.92227 21.924L8.22533 20.1275C8.45278 20.2331 8.68544 20.3293 8.92217 20.4158L9.28069 23.3154C9.32914 23.7068 9.66172 24.001 10.0562 24.001H13.9433C14.3378 24.001 14.6704 23.7069 14.7188 23.3154L15.0773 20.4159C15.3139 20.3294 15.5468 20.2332 15.7746 20.1275L18.0778 21.9241C18.3888 22.1669 18.832 22.1395 19.1111 21.8604L21.8596 19.1112C22.1385 18.8322 22.1657 18.3891 21.923 18.0781L20.1268 15.7755C20.2326 15.5477 20.329 15.3148 20.4155 15.078L23.3142 14.72C23.7058 14.6716 23.9999 14.3389 23.9999 13.9445V10.0571C24 9.66249 23.706 9.32991 23.3144 9.28146ZM22.4371 13.2534L19.7348 13.5871C19.4275 13.625 19.1717 13.8408 19.0823 14.1371C18.94 14.6092 18.7506 15.0667 18.5192 15.497C18.3725 15.7698 18.4007 16.1035 18.5913 16.3478L20.266 18.4945L18.4944 20.2666L16.3473 18.5918C16.1031 18.4014 15.7696 18.3731 15.4969 18.5196C15.0668 18.7507 14.6092 18.94 14.1369 19.0825C13.8406 19.1718 13.625 19.4277 13.5869 19.7347L13.2527 22.4379H10.7472L10.4129 19.7347C10.375 19.4277 10.1593 19.1719 9.86323 19.0825C9.38978 18.9395 8.93238 18.7503 8.50363 18.5197C8.23085 18.373 7.89723 18.4014 7.65301 18.5918L5.50603 20.2666L3.73424 18.4944L5.40861 16.3474C5.59907 16.1033 5.62731 15.7698 5.48081 15.497C5.24992 15.0672 5.0605 14.6096 4.91786 14.137C4.82847 13.8407 4.57267 13.6251 4.26552 13.5872L1.56288 13.2534V10.7477L4.26531 10.4135C4.57236 10.3755 4.82805 10.1599 4.91745 9.86378C5.06019 9.39075 5.24971 8.93335 5.48071 8.50408C5.62762 8.2312 5.59938 7.89737 5.40871 7.65304L3.73393 5.50596L5.50561 3.73469L7.65259 5.40937C7.89692 5.59983 8.23044 5.62817 8.50321 5.48147C8.93259 5.25058 9.38999 5.06127 9.86271 4.91873C10.1589 4.82933 10.3746 4.57354 10.4125 4.26649L10.7467 1.56406H13.2523L13.5865 4.26649C13.6246 4.57365 13.8402 4.82954 14.1367 4.91884C14.6082 5.06095 15.0657 5.25027 15.4966 5.48168C15.7693 5.62817 16.1028 5.59994 16.347 5.40948L18.4938 3.73532L20.2657 5.50627L18.5911 7.65335C18.4007 7.89737 18.3724 8.23068 18.5187 8.50335C18.7502 8.93481 18.9396 9.39252 19.0816 9.86368C19.1709 10.16 19.4267 10.3757 19.7339 10.4137L22.437 10.748V13.2534H22.4371Z" fill="#6F717D"/>
<path d="M11.9995 7.12891C9.31409 7.12891 7.12939 9.31402 7.12939 12C7.12939 14.6855 9.31409 16.8703 11.9995 16.8703C14.6853 16.8703 16.8703 14.6855 16.8703 12C16.8703 9.31402 14.6853 7.12891 11.9995 7.12891ZM11.9995 15.3075C10.176 15.3075 8.69228 13.8238 8.69228 12C8.69228 10.1759 10.176 8.69179 11.9995 8.69179C13.8235 8.69179 15.3074 10.1759 15.3074 12C15.3074 13.8238 13.8235 15.3075 11.9995 15.3075Z" fill="#6F717D"/>
</g>
<defs>
<clipPath id="clip0">
<rect width="24" height="24" fill="white"/>
</clipPath>
</defs>
</svg>
