<svg width="28" height="30" viewBox="0 0 28 30" fill="none" xmlns="http://www.w3.org/2000/svg">
<path fill-rule="evenodd" clip-rule="evenodd" d="M12.7324 0.323749C13.5207 -0.107917 14.4793 -0.107916 15.2676 0.323749L26.6574 6.56047C27.4861 7.01421 28 7.87507 28 8.80937V21.1906C28 22.1249 27.4861 22.9858 26.6574 23.4395L15.2676 29.6762C14.4793 30.1079 13.5207 30.1079 12.7324 29.6763L1.34256 23.4395C0.513918 22.9858 0 22.1249 0 21.1906V8.80937C0 7.87507 0.513921 7.01421 1.34256 6.56047L12.7324 0.323749ZM14.1152 2.3682C14.0436 2.32896 13.9564 2.32896 13.8848 2.3682L2.49493 8.60493C2.4196 8.64617 2.37288 8.72443 2.37288 8.80937V21.1906C2.37288 21.2756 2.4196 21.3538 2.49493 21.3951L13.8848 27.6318C13.9564 27.671 14.0436 27.671 14.1152 27.6318L25.5051 21.3951C25.5804 21.3538 25.6271 21.2756 25.6271 21.1906V8.80937C25.6271 8.72443 25.5804 8.64617 25.5051 8.60493L14.1152 2.3682Z" fill="white"/>
<path fill-rule="evenodd" clip-rule="evenodd" d="M6.48588 15C6.48588 10.9097 9.85006 7.59389 14 7.59389C18.1499 7.59389 21.5141 10.9097 21.5141 15C21.5141 19.0903 18.1499 22.4061 14 22.4061C9.85006 22.4061 6.48588 19.0903 6.48588 15ZM14 9.93266C11.1606 9.93266 8.85876 12.2014 8.85876 15C8.85876 17.7986 11.1606 20.0673 14 20.0673C16.8394 20.0673 19.1412 17.7986 19.1412 15C19.1412 12.2014 16.8394 9.93266 14 9.93266Z" fill="white"/>
</svg>
