<svg width="24" height="24" viewBox="0 0 24 24" fill="none" xmlns="http://www.w3.org/2000/svg">
<g clip-path="url(#clip0)">
<path d="M23.9716 1.79165C23.9197 0.838307 23.1615 0.0801974 22.2081 0.0281661C20.2845 -0.0769276 16.5202 0.0253068 12.9208 1.88704C11.0858 2.83617 9.14522 4.44534 7.59652 6.30196C7.57744 6.32484 7.55888 6.34785 7.53994 6.37078L4.02525 6.64228C3.44672 6.68699 2.93142 6.99023 2.61145 7.47417L0.213611 11.101C-0.0290606 11.468 -0.0676387 11.9273 0.110346 12.3297C0.288377 12.732 0.654189 13.0124 1.08896 13.0798L4.0501 13.5384C4.03964 13.596 4.02914 13.6535 4.01953 13.7111C3.92095 14.3008 4.11633 14.907 4.54224 15.3329L8.66686 19.4576C9.01997 19.8107 9.49711 20.0054 9.98602 20.0054C10.0867 20.0054 10.188 19.9971 10.2887 19.9802C10.3463 19.9706 10.4038 19.9601 10.4614 19.9497L10.92 22.9109C10.9874 23.3456 11.2678 23.7115 11.67 23.8895C11.8374 23.9635 12.0146 24.0001 12.1909 24.0001C12.4386 24 12.6845 23.9279 12.8988 23.7862L16.5256 21.3884C17.0096 21.0683 17.3128 20.553 17.3574 19.9746L17.6289 16.4599C17.6518 16.441 17.6749 16.4224 17.6978 16.4033C19.5544 14.8546 21.1636 12.914 22.1127 11.079C23.9745 7.47946 24.0766 3.71517 23.9716 1.79165ZM15.75 20.2153L12.2808 22.509L11.8338 19.6231C13.3 19.192 14.7505 18.5016 16.1323 17.5766L15.9555 19.8662C15.9444 20.009 15.8695 20.1363 15.75 20.2153ZM9.66122 18.4632L5.53655 14.3385C5.43131 14.2333 5.38266 14.0854 5.40652 13.9429C5.52914 13.2097 5.71969 12.5116 5.95556 11.8541L12.1444 18.0429C11.3546 18.3258 10.6472 18.4945 10.0568 18.5932C9.91416 18.617 9.76645 18.5684 9.66122 18.4632ZM4.13358 8.04435L6.42314 7.86749C5.49811 9.24932 4.80764 10.6998 4.37653 12.166L1.49072 11.7191L3.7845 8.24976C3.86353 8.13023 3.9908 8.05537 4.13358 8.04435ZM16.7971 15.3234C15.6612 16.2709 14.5585 16.9562 13.5422 17.4521L6.54745 10.4573C7.19705 9.13059 7.98985 8.02579 8.67638 7.20276C10.1096 5.48456 11.8921 4.00232 13.5669 3.13607C16.8704 1.42734 20.3509 1.33532 22.1316 1.43226C22.3673 1.4451 22.5547 1.63256 22.5675 1.86829C22.6646 3.64898 22.5724 7.12945 20.8637 10.433C19.9975 12.1077 18.5153 13.8902 16.7971 15.3234Z" fill="#6F717D"/>
<path d="M16.4401 11.0736C17.3402 11.0735 18.2407 10.7309 18.9259 10.0456C19.59 9.38161 19.9556 8.49877 19.9556 7.55977C19.9556 6.62077 19.5899 5.73792 18.9259 5.07394C17.5552 3.70317 15.3249 3.70327 13.9543 5.07394C13.2902 5.73792 12.9246 6.62077 12.9246 7.55977C12.9246 8.49877 13.2903 9.38161 13.9543 10.0456C14.6397 10.731 15.5397 11.0737 16.4401 11.0736ZM14.9485 6.06825C15.3597 5.65702 15.8999 5.45142 16.44 5.45142C16.9802 5.45142 17.5203 5.65702 17.9315 6.06825C18.3299 6.46664 18.5493 6.99633 18.5493 7.55972C18.5493 8.12311 18.3299 8.65284 17.9315 9.05123C17.1091 9.87366 15.7709 9.87361 14.9485 9.05123C14.5501 8.65284 14.3307 8.12316 14.3307 7.55977C14.3307 6.99638 14.5501 6.46664 14.9485 6.06825Z" fill="#6F717D"/>
<path d="M0.717262 19.7781C0.897215 19.7781 1.07717 19.7094 1.21442 19.5721L3.51003 17.2765C3.78462 17.0019 3.78462 16.5567 3.51003 16.2821C3.23548 16.0075 2.79026 16.0075 2.51567 16.2821L0.220105 18.5777C-0.0544883 18.8523 -0.0544883 19.2975 0.220105 19.5721C0.357355 19.7094 0.537309 19.7781 0.717262 19.7781Z" fill="#6F717D"/>
<path d="M5.61377 18.3856C5.33923 18.111 4.89401 18.111 4.61941 18.3856L0.205945 22.7992C-0.0686484 23.0737 -0.0686484 23.5189 0.205945 23.7935C0.343242 23.9308 0.523148 23.9994 0.703102 23.9994C0.883055 23.9994 1.06301 23.9308 1.20026 23.7935L5.61373 19.38C5.88837 19.1054 5.88837 18.6602 5.61377 18.3856Z" fill="#6F717D"/>
<path d="M6.72323 20.4901L4.42762 22.7857C4.15303 23.0603 4.15303 23.5055 4.42762 23.7801C4.56492 23.9174 4.74487 23.9861 4.92478 23.9861C5.10469 23.9861 5.28469 23.9174 5.42193 23.7801L7.71754 21.4845C7.99213 21.2099 7.99213 20.7647 7.71754 20.4901C7.44299 20.2155 6.99778 20.2155 6.72323 20.4901Z" fill="#6F717D"/>
</g>
<defs>
<clipPath id="clip0">
<rect width="24" height="24" fill="white"/>
</clipPath>
</defs>
</svg>
