<svg width="22" height="28" viewBox="0 0 22 28" fill="none" xmlns="http://www.w3.org/2000/svg">
<path d="M8.24723 0.666992C7.67713 0.666992 7.21497 1.10932 7.21497 1.65496V2.64292H1.36551C0.79541 2.64292 0.333252 3.08525 0.333252 3.63089C0.333252 4.17653 0.79541 4.61886 1.36551 4.61886H20.6343C21.2044 4.61886 21.6666 4.17653 21.6666 3.63089C21.6666 3.08525 21.2044 2.64292 20.6343 2.64292H14.7849V1.65496C14.7849 1.10932 14.3227 0.666992 13.7526 0.666992H8.24723Z" fill="white"/>
<path d="M12.4598 17.4624L14.4825 19.3984C14.8856 19.7842 14.8856 20.4097 14.4825 20.7956C14.0794 21.1814 13.4258 21.1814 13.0227 20.7956L10.9999 18.8596L8.97716 20.7956C8.57404 21.1814 7.92045 21.1814 7.51732 20.7956C7.1142 20.4098 7.1142 19.7842 7.51732 19.3984L9.5401 17.4624L7.51731 15.5264C7.11419 15.1406 7.11419 14.5151 7.51731 14.1292C7.92043 13.7434 8.57402 13.7434 8.97715 14.1292L10.9999 16.0652L13.0227 14.1292C13.4258 13.7434 14.0794 13.7434 14.4825 14.1292C14.8857 14.5151 14.8857 15.1406 14.4825 15.5264L12.4598 17.4624Z" fill="white"/>
<path fill-rule="evenodd" clip-rule="evenodd" d="M2.73005 8.13229C2.78814 7.63196 3.23001 7.25343 3.756 7.25343H18.2438C18.7698 7.25343 19.2117 7.63196 19.2698 8.13229L19.5452 10.5052C20.0446 14.8066 20.0446 19.1476 19.5452 23.449L19.5181 23.6826C19.3199 25.39 17.9373 26.7515 16.1597 26.9897C12.7365 27.4483 9.26329 27.4483 5.84011 26.9897C4.06251 26.7515 2.67991 25.39 2.4817 23.6826L2.45458 23.449C1.95522 19.1476 1.95522 14.8066 2.45458 10.5052L2.73005 8.13229ZM4.67991 9.22936L4.50647 10.7234C4.02395 14.8797 4.02395 19.0745 4.50647 23.2308L4.53358 23.4644C4.62759 24.2742 5.28331 24.9198 6.12635 25.0328C9.35962 25.466 12.6402 25.466 15.8735 25.0328C16.7165 24.9198 17.3722 24.2742 17.4662 23.4644L17.4934 23.2308C17.9759 19.0745 17.9759 14.8797 17.4934 10.7234L17.3199 9.22936H4.67991Z" fill="white"/>
</svg>
