<svg width="24" height="24" viewBox="0 0 24 24" fill="none" xmlns="http://www.w3.org/2000/svg">
<g clip-path="url(#clip0)">
<path d="M20.9862 6.13786L20.2216 3.84661C20.0202 3.24295 19.4572 2.83739 18.8208 2.83739H15.2848V2.01553C15.2848 0.904172 14.3806 0 13.2693 0H11.1979C10.0866 0 9.18239 0.904172 9.18239 2.01553V2.83739H5.17927C4.54285 2.83739 3.97993 3.24295 3.77846 3.84661L3.01393 6.13786C2.9424 6.35231 2.9783 6.58805 3.11044 6.77147C3.24258 6.95489 3.45488 7.06355 3.68091 7.06355H3.94107L5.76356 23.375C5.80331 23.7308 6.10425 24 6.46233 24H17.4514C17.8095 24 18.1104 23.7308 18.1502 23.375L19.9727 7.06355H20.3191C20.5452 7.06355 20.7575 6.95489 20.8896 6.77147C21.0218 6.58809 21.0577 6.35236 20.9862 6.13786ZM10.5886 2.01553C10.5886 1.67958 10.862 1.40625 11.1979 1.40625H13.2693C13.6052 1.40625 13.8786 1.67958 13.8786 2.01553V2.83739H10.5886V2.01553ZM16.8225 22.5938H7.09135L5.35613 7.06355H18.5578L16.8225 22.5938ZM4.6568 5.6573L5.11242 4.29173C5.12203 4.26295 5.14889 4.24364 5.17932 4.24364H18.8208C18.8512 4.24364 18.8781 4.26295 18.8877 4.29173L19.3433 5.6573H4.6568Z" fill="#6F717D"/>
</g>
<defs>
<clipPath id="clip0">
<rect width="24" height="24" fill="white"/>
</clipPath>
</defs>
</svg>
