<svg width="56" height="56" viewBox="0 0 56 56" fill="none" xmlns="http://www.w3.org/2000/svg">
<g clip-path="url(#clip0)">
<path d="M55.5207 19.3482C55.4698 19.2974 55.4157 19.252 55.3602 19.2093C48.0642 11.5242 38.2241 7.49219 27.9998 7.49219C22.7708 7.49219 17.7194 8.52816 12.9862 10.5711C7.64708 12.8757 4.10984 15.7175 0.47914 19.3482C-0.169242 19.9966 -0.150114 21.0376 0.47914 21.6669L5.1551 26.3429C5.81889 27.0066 6.89552 26.9753 7.52259 26.2919C12.8244 20.5123 20.0967 17.3294 27.9998 17.3294C35.903 17.3294 43.1753 20.5124 48.4771 26.2919C49.1078 26.9793 50.1847 27.0029 50.8446 26.3429L55.5206 21.6669C55.5359 21.6515 55.549 21.635 55.5635 21.6193C55.5736 21.6082 55.5841 21.5972 55.5937 21.5859C56.1582 20.9418 56.1351 19.9625 55.5207 19.3482ZM28 33.7248C24.4409 33.7248 21.1459 35.3217 18.9599 38.1062C18.4476 38.7588 18.5035 39.6913 19.0902 40.2779L26.8406 48.0284C27.4807 48.6686 28.5194 48.6683 29.1592 48.0284L36.9096 40.2779C37.4963 39.6913 37.5522 38.7588 37.0399 38.1062C34.854 35.3217 31.5591 33.7248 28 33.7248ZM28 20.6085C20.9912 20.6085 14.4372 23.4861 9.72295 28.711C9.13819 29.359 9.16376 30.3515 9.78088 30.9686L14.4086 35.5965C15.0809 36.2689 16.1793 36.2282 16.8018 35.5168C19.622 32.294 23.7036 30.4457 28 30.4457C32.2963 30.4457 36.3779 32.294 39.1981 35.5168C39.8217 36.2295 40.9199 36.2678 41.5913 35.5965L46.219 30.9686C46.8362 30.3515 46.8617 29.359 46.277 28.711C41.563 23.4864 35.0092 20.6085 28 20.6085Z" fill="url(#paint0_linear)"/>
<path d="M55.5207 19.3482C55.4698 19.2974 55.4157 19.252 55.3602 19.2093C48.0642 11.5242 38.2241 7.49219 27.9998 7.49219C22.7708 7.49219 17.7194 8.52816 12.9862 10.5711C7.64708 12.8757 4.10984 15.7175 0.47914 19.3482C-0.169242 19.9966 -0.150114 21.0376 0.47914 21.6669L5.1551 26.3429C5.81889 27.0066 6.89552 26.9753 7.52259 26.2919C12.8244 20.5123 20.0967 17.3294 27.9998 17.3294C35.903 17.3294 43.1753 20.5124 48.4771 26.2919C49.1078 26.9793 50.1847 27.0029 50.8446 26.3429L55.5206 21.6669C55.5359 21.6515 55.549 21.635 55.5635 21.6193C55.5736 21.6082 55.5841 21.5972 55.5937 21.5859C56.1582 20.9418 56.1351 19.9625 55.5207 19.3482ZM28 33.7248C24.4409 33.7248 21.1459 35.3217 18.9599 38.1062C18.4476 38.7588 18.5035 39.6913 19.0902 40.2779L26.8406 48.0284C27.4807 48.6686 28.5194 48.6683 29.1592 48.0284L36.9096 40.2779C37.4963 39.6913 37.5522 38.7588 37.0399 38.1062C34.854 35.3217 31.5591 33.7248 28 33.7248ZM28 20.6085C20.9912 20.6085 14.4372 23.4861 9.72295 28.711C9.13819 29.359 9.16376 30.3515 9.78088 30.9686L14.4086 35.5965C15.0809 36.2689 16.1793 36.2282 16.8018 35.5168C19.622 32.294 23.7036 30.4457 28 30.4457C32.2963 30.4457 36.3779 32.294 39.1981 35.5168C39.8217 36.2295 40.9199 36.2678 41.5913 35.5965L46.219 30.9686C46.8362 30.3515 46.8617 29.359 46.277 28.711C41.563 23.4864 35.0092 20.6085 28 20.6085Z" fill="url(#paint1_linear)"/>
<g filter="url(#filter0_d)">
<path d="M42.215 15.8313L31.4394 41.4856C31.4251 41.5199 31.4107 41.554 31.3938 41.5855C30.9708 42.4407 30.2383 43.0798 29.3309 43.3841C27.465 44.0099 25.4373 43.0021 24.811 41.1347C24.5095 40.2356 24.5749 39.2687 25.0539 38.3064L39.0254 14.2424C39.4975 13.4296 40.5217 13.1228 41.3647 13.5424C42.2061 13.9627 42.5774 14.9597 42.215 15.8313Z" fill="#121420"/>
</g>
</g>
<defs>
<filter id="filter0_d" x="3" y="7.87988" width="61.6391" height="61.6391" filterUnits="userSpaceOnUse" color-interpolation-filters="sRGB">
<feFlood flood-opacity="0" result="BackgroundImageFix"/>
<feColorMatrix in="SourceAlpha" type="matrix" values="0 0 0 0 0 0 0 0 0 0 0 0 0 0 0 0 0 0 127 0"/>
<feOffset dy="10"/>
<feGaussianBlur stdDeviation="7.5"/>
<feColorMatrix type="matrix" values="0 0 0 0 0 0 0 0 0 0 0 0 0 0 0 0 0 0 0.25 0"/>
<feBlend mode="normal" in2="BackgroundImageFix" result="effect1_dropShadow"/>
<feBlend mode="normal" in="SourceGraphic" in2="effect1_dropShadow" result="shape"/>
</filter>
<linearGradient id="paint0_linear" x1="28.0001" y1="48.5084" x2="28.0001" y2="7.49219" gradientUnits="userSpaceOnUse">
<stop stop-color="#226B58"/>
<stop offset="1" stop-color="#72F7D4"/>
</linearGradient>
<linearGradient id="paint1_linear" x1="28.0001" y1="48.5084" x2="28.0001" y2="7.49219" gradientUnits="userSpaceOnUse">
<stop stop-color="#4B226B"/>
<stop offset="1" stop-color="#D472F7"/>
</linearGradient>
<clipPath id="clip0">
<rect width="56" height="56" fill="white"/>
</clipPath>
</defs>
</svg>
